<svg width="135" height="184" viewBox="0 0 135 184" fill="none" xmlns="http://www.w3.org/2000/svg">
<path d="M16.8936 53.5683C23.2454 31.0242 44.0551 15.2792 67.5004 15.2792C90.9454 15.2792 111.756 31.0242 118.108 53.5683C118.749 55.8439 117.424 58.209 115.148 58.8502C112.872 59.4915 110.508 58.1667 109.866 55.8906C104.549 37.0205 87.1278 23.8418 67.4999 23.8418C47.8721 23.8418 30.4509 37.021 25.1343 55.8906C24.6024 57.7781 22.8846 59.0115 21.0157 59.012C20.6315 59.012 20.2409 58.9601 19.8528 58.8507C17.5772 58.2089 16.2519 55.8439 16.8936 53.5683ZM28.3922 18.1042C29.1851 19.4776 30.624 20.2457 32.1039 20.2457C32.8302 20.2457 33.5662 20.0607 34.2405 19.6715C36.2882 18.4896 36.9895 15.8709 35.8073 13.8236L34.7086 11.9209C33.5271 9.87321 30.9089 9.17149 28.8607 10.3541C26.8128 11.5361 26.1117 14.1543 27.2937 16.202L28.3922 18.1042ZM67.5004 10.7594C69.865 10.7594 71.7815 8.84292 71.7815 6.47813V4.28107C71.7815 1.91697 69.865 0 67.5004 0C65.1358 0 63.2193 1.91697 63.2193 4.28107V6.47813C63.2193 8.84292 65.1358 10.7594 67.5004 10.7594ZM100.759 19.6706C101.434 20.0603 102.17 20.2452 102.896 20.2452C104.375 20.2452 105.815 19.4776 106.608 18.1047L107.707 16.202C108.89 14.1547 108.188 11.5361 106.141 10.3537C104.093 9.17103 101.475 9.87183 100.293 11.9195L99.1932 13.8223C98.0108 15.87 98.7119 18.4882 100.759 19.6706ZM9.89299 44.0191C11.0747 41.9714 10.373 39.3531 8.32527 38.1712L6.42208 37.0729C4.37461 35.8907 1.75661 36.5924 0.573985 38.6406C-0.60795 40.6885 0.0939976 43.3065 2.14194 44.4887L4.04512 45.587C4.71903 45.976 5.45498 46.1612 6.18128 46.1612C7.66077 46.1607 9.10005 45.3924 9.89299 44.0191ZM95.4739 77.1025C97.8001 77.5082 100.02 75.9504 100.427 73.621C100.757 71.7311 100.924 69.7903 100.924 67.8524C100.924 49.4223 85.93 34.4285 67.4999 34.4285C49.0699 34.4285 34.076 49.4223 34.076 67.8524C34.076 69.7875 34.2435 71.7277 34.5726 73.6201C34.9351 75.7011 36.7432 77.1673 38.7851 77.1673C39.0292 77.1673 39.2766 77.1461 39.5248 77.1029C41.8542 76.6971 43.4134 74.4801 43.0079 72.1507C42.7622 70.7427 42.6382 69.2965 42.6382 67.8524C42.6382 54.1434 53.791 42.9906 67.4999 42.9906C81.2089 42.9906 92.3617 54.1439 92.3617 67.8524C92.3617 69.2986 92.2374 70.744 91.992 72.1493C91.5862 74.4787 93.1445 76.6962 95.4739 77.1025ZM124.814 68.604H115.531C113.338 68.604 111.499 70.2622 111.273 72.4441C108.946 94.917 90.1283 111.863 67.5004 111.863C44.8724 111.863 26.0541 94.917 23.7277 72.4441C23.5018 70.2622 21.6632 68.604 19.4693 68.604H10.1866C7.82184 68.604 5.90533 70.5205 5.90533 72.885C5.90533 75.2496 7.82184 77.1661 10.1866 77.1661H15.7519C17.7879 88.542 23.536 98.9513 32.1871 106.8C40.8106 114.623 51.698 119.317 63.2189 120.253V148.592H25.8415C16.1301 148.592 8.22922 156.493 8.22922 166.203C8.22922 175.915 16.1301 183.816 25.8415 183.816H54.1696C55.0329 183.816 55.8759 183.555 56.5879 183.067L76.0586 169.736C78.0101 168.4 78.5084 165.736 77.1728 163.785C75.8371 161.834 73.1727 161.335 71.2215 162.671L52.8443 175.254H25.8415C20.8512 175.254 16.7914 171.194 16.7914 166.203C16.7914 161.214 20.8512 157.154 25.8415 157.154H109.159C114.149 157.154 118.209 161.214 118.209 166.203C118.209 171.194 114.149 175.254 109.159 175.254H80.8312C78.4666 175.254 76.5501 177.17 76.5501 179.535C76.5501 181.899 78.4666 183.816 80.8312 183.816H109.159C118.87 183.816 126.771 175.915 126.771 166.203C126.771 156.493 118.87 148.592 109.159 148.592H71.781V120.253C83.3019 119.317 94.1886 114.624 102.812 106.8C111.464 98.9513 117.212 88.5415 119.248 77.1661H124.813C127.178 77.1661 129.094 75.2496 129.094 72.885C129.094 70.5205 127.178 68.604 124.814 68.604ZM68.7995 64.2016C77.4857 66.9687 83.3219 74.9566 83.3219 84.0787C83.3219 93.2004 77.4857 101.188 68.7995 103.955C68.3765 104.09 67.9379 104.158 67.4999 104.158C67.0613 104.158 66.6231 104.09 66.2004 103.955C57.5135 101.187 51.6775 93.1999 51.6775 84.0787C51.6775 74.9571 57.5139 66.9691 66.2008 64.2016C67.0461 63.933 67.9546 63.933 68.7995 64.2016ZM67.5004 72.8552C63.106 74.8174 60.2397 79.1692 60.2397 84.0787C60.2397 88.9882 63.106 93.3401 67.5004 95.3023C71.8943 93.3401 74.7602 88.9882 74.7602 84.0787C74.7597 79.1692 71.8943 74.8169 67.5004 72.8552ZM134.426 38.6392C133.243 36.592 130.624 35.8907 128.578 37.0729L126.675 38.1716C124.627 39.3543 123.926 41.9723 125.109 44.02C125.902 45.3933 127.34 46.1612 128.82 46.1612C129.546 46.1612 130.283 45.976 130.957 45.5865L132.859 44.4878C134.907 43.3056 135.608 40.6869 134.426 38.6392Z" fill="#37474F"/>
</svg>
